<svg xmlns="http://www.w3.org/2000/svg" version="1.1" xmlns:xlink="http://www.w3.org/1999/xlink" xmlns:svgjs="http://svgjs.dev/svgjs" viewBox="0 0 800 800" opacity="0.1" width="800" height="800"><g stroke-width="0.5" stroke="rgba(202, 188, 188, 1.00)" fill="none"><rect width="133.33333333333334" height="133.33333333333334" x="0" y="0"></rect><rect width="133.33333333333334" height="133.33333333333334" x="133.33333333333334" y="0"></rect><rect width="133.33333333333334" height="133.33333333333334" x="266.6666666666667" y="0"></rect><rect width="133.33333333333334" height="133.33333333333334" x="400" y="0"></rect><rect width="133.33333333333334" height="133.33333333333334" x="533.3333333333334" y="0"></rect><rect width="133.33333333333334" height="133.33333333333334" x="666.6666666666667" y="0"></rect><rect width="133.33333333333334" height="133.33333333333334" x="800.0000000000001" y="0"></rect><rect width="133.33333333333334" height="133.33333333333334" x="0" y="133.33333333333334"></rect><rect width="133.33333333333334" height="133.33333333333334" x="133.33333333333334" y="133.33333333333334"></rect><rect width="133.33333333333334" height="133.33333333333334" x="266.6666666666667" y="133.33333333333334"></rect><rect width="133.33333333333334" height="133.33333333333334" x="400" y="133.33333333333334"></rect><rect width="133.33333333333334" height="133.33333333333334" x="533.3333333333334" y="133.33333333333334"></rect><rect width="133.33333333333334" height="133.33333333333334" x="666.6666666666667" y="133.33333333333334"></rect><rect width="133.33333333333334" height="133.33333333333334" x="800.0000000000001" y="133.33333333333334"></rect><rect width="133.33333333333334" height="133.33333333333334" x="0" y="266.6666666666667"></rect><rect width="133.33333333333334" height="133.33333333333334" x="133.33333333333334" y="266.6666666666667"></rect><rect width="133.33333333333334" height="133.33333333333334" x="266.6666666666667" y="266.6666666666667"></rect><rect width="133.33333333333334" height="133.33333333333334" x="400" y="266.6666666666667"></rect><rect width="133.33333333333334" height="133.33333333333334" x="533.3333333333334" y="266.6666666666667"></rect><rect width="133.33333333333334" height="133.33333333333334" x="666.6666666666667" y="266.6666666666667"></rect><rect width="133.33333333333334" height="133.33333333333334" x="800.0000000000001" y="266.6666666666667"></rect><rect width="133.33333333333334" height="133.33333333333334" x="0" y="400"></rect><rect width="133.33333333333334" height="133.33333333333334" x="133.33333333333334" y="400"></rect><rect width="133.33333333333334" height="133.33333333333334" x="266.6666666666667" y="400"></rect><rect width="133.33333333333334" height="133.33333333333334" x="400" y="400"></rect><rect width="133.33333333333334" height="133.33333333333334" x="533.3333333333334" y="400"></rect><rect width="133.33333333333334" height="133.33333333333334" x="666.6666666666667" y="400"></rect><rect width="133.33333333333334" height="133.33333333333334" x="800.0000000000001" y="400"></rect><rect width="133.33333333333334" height="133.33333333333334" x="0" y="533.3333333333334"></rect><rect width="133.33333333333334" height="133.33333333333334" x="133.33333333333334" y="533.3333333333334"></rect><rect width="133.33333333333334" height="133.33333333333334" x="266.6666666666667" y="533.3333333333334"></rect><rect width="133.33333333333334" height="133.33333333333334" x="400" y="533.3333333333334"></rect><rect width="133.33333333333334" height="133.33333333333334" x="533.3333333333334" y="533.3333333333334"></rect><rect width="133.33333333333334" height="133.33333333333334" x="666.6666666666667" y="533.3333333333334"></rect><rect width="133.33333333333334" height="133.33333333333334" x="800.0000000000001" y="533.3333333333334"></rect><rect width="133.33333333333334" height="133.33333333333334" x="0" y="666.6666666666667"></rect><rect width="133.33333333333334" height="133.33333333333334" x="133.33333333333334" y="666.6666666666667"></rect><rect width="133.33333333333334" height="133.33333333333334" x="266.6666666666667" y="666.6666666666667"></rect><rect width="133.33333333333334" height="133.33333333333334" x="400" y="666.6666666666667"></rect><rect width="133.33333333333334" height="133.33333333333334" x="533.3333333333334" y="666.6666666666667"></rect><rect width="133.33333333333334" height="133.33333333333334" x="666.6666666666667" y="666.6666666666667"></rect><rect width="133.33333333333334" height="133.33333333333334" x="800.0000000000001" y="666.6666666666667"></rect><rect width="133.33333333333334" height="133.33333333333334" x="0" y="800.0000000000001"></rect><rect width="133.33333333333334" height="133.33333333333334" x="133.33333333333334" y="800.0000000000001"></rect><rect width="133.33333333333334" height="133.33333333333334" x="266.6666666666667" y="800.0000000000001"></rect><rect width="133.33333333333334" height="133.33333333333334" x="400" y="800.0000000000001"></rect><rect width="133.33333333333334" height="133.33333333333334" x="533.3333333333334" y="800.0000000000001"></rect><rect width="133.33333333333334" height="133.33333333333334" x="666.6666666666667" y="800.0000000000001"></rect><rect width="133.33333333333334" height="133.33333333333334" x="800.0000000000001" y="800.0000000000001"></rect></g></svg>